<?xml version="1.0" encoding="UTF-8" standalone="no"?>
<!DOCTYPE svg PUBLIC "-//W3C//DTD SVG 1.1//EN"
 "http://www.w3.org/Graphics/SVG/1.1/DTD/svg11.dtd">
<!-- Generated by graphviz version 2.40.1 (20161225.0304)
 -->
<!-- Title: dependencies Pages: 1 -->
<svg width="804pt" height="284pt"
 viewBox="0.00 0.00 804.00 284.00" xmlns="http://www.w3.org/2000/svg" xmlns:xlink="http://www.w3.org/1999/xlink">
<g id="graph0" class="graph" transform="scale(1 1) rotate(0) translate(4 280)">
<title>dependencies</title>
<polygon fill="#ffffff" stroke="transparent" points="-4,4 -4,-280 800,-280 800,4 -4,4"/>
<text text-anchor="start" x="377.0091" y="-42.4" font-family="sans-serif" font-weight="bold" font-size="14.00" fill="#000000">Legend</text>
<polygon fill="#ffffb3" stroke="transparent" points="164,-10 164,-30 184,-30 184,-10 164,-10"/>
<text text-anchor="start" x="187.629" y="-15.4" font-family="sans-serif" font-size="14.00" fill="#000000"> &#160;Declarations</text>
<polygon fill="#8dd3c7" stroke="transparent" points="277,-10 277,-30 297,-30 297,-10 277,-10"/>
<text text-anchor="start" x="300.7251" y="-15.4" font-family="sans-serif" font-size="14.00" fill="#000000"> &#160;Module</text>
<polygon fill="#80b1d3" stroke="transparent" points="363,-10 363,-30 383,-30 383,-10 363,-10"/>
<text text-anchor="start" x="386.7812" y="-15.4" font-family="sans-serif" font-size="14.00" fill="#000000"> &#160;Bootstrap</text>
<polygon fill="#fdb462" stroke="transparent" points="460,-10 460,-30 480,-30 480,-10 460,-10"/>
<text text-anchor="start" x="483.6732" y="-15.4" font-family="sans-serif" font-size="14.00" fill="#000000"> &#160;Providers</text>
<polygon fill="#fb8072" stroke="transparent" points="556,-10 556,-30 576,-30 576,-10 556,-10"/>
<text text-anchor="start" x="579.7258" y="-15.4" font-family="sans-serif" font-size="14.00" fill="#000000"> &#160;Exports</text>
<g id="clust1" class="cluster">
<title>cluster_AppModule</title>
<polygon fill="none" stroke="#000000" stroke-dasharray="1,5" points="8,-70 8,-268 788,-268 788,-70 8,-70"/>
</g>
<g id="clust2" class="cluster">
<title>cluster_AppModule_declarations</title>
<polygon fill="none" stroke="#000000" points="168,-78 168,-130 780,-130 780,-78 168,-78"/>
</g>
<g id="clust9" class="cluster">
<title>cluster_AppModule_bootstrap</title>
<polygon fill="none" stroke="#000000" points="373,-208 373,-260 497,-260 497,-208 373,-208"/>
</g>
<g id="clust10" class="cluster">
<title>cluster_AppModule_providers</title>
<polygon fill="none" stroke="#000000" points="16,-78 16,-130 160,-130 160,-78 16,-78"/>
</g>
<!-- AppComponent -->
<g id="node1" class="node">
<title>AppComponent</title>
<polygon fill="#ffffb3" stroke="#000000" points="771.9399,-122 666.0601,-122 666.0601,-86 771.9399,-86 771.9399,-122"/>
<text text-anchor="middle" x="719" y="-99.8" font-family="Times,serif" font-size="14.00" fill="#000000">AppComponent</text>
</g>
<!-- AppModule -->
<g id="node5" class="node">
<title>AppModule</title>
<polygon fill="#8dd3c7" stroke="#000000" points="476.6571,-187 473.6571,-191 452.6571,-191 449.6571,-187 393.3429,-187 393.3429,-151 476.6571,-151 476.6571,-187"/>
<text text-anchor="middle" x="435" y="-164.8" font-family="Times,serif" font-size="14.00" fill="#000000">AppModule</text>
</g>
<!-- AppComponent&#45;&gt;AppModule -->
<g id="edge1" class="edge">
<title>AppComponent&#45;&gt;AppModule</title>
<path fill="none" stroke="#000000" d="M719,-122.2843C719,-143.3211 719,-175 719,-175 719,-175 486.9052,-175 486.9052,-175"/>
<polygon fill="#000000" stroke="#000000" points="486.9052,-171.5001 476.9052,-175 486.9051,-178.5001 486.9052,-171.5001"/>
</g>
<!-- SidenavComponent -->
<g id="node2" class="node">
<title>SidenavComponent</title>
<polygon fill="#ffffb3" stroke="#000000" points="648.4356,-122 521.5644,-122 521.5644,-86 648.4356,-86 648.4356,-122"/>
<text text-anchor="middle" x="585" y="-99.8" font-family="Times,serif" font-size="14.00" fill="#000000">SidenavComponent</text>
</g>
<!-- SidenavComponent&#45;&gt;AppModule -->
<g id="edge2" class="edge">
<title>SidenavComponent&#45;&gt;AppModule</title>
<path fill="none" stroke="#000000" d="M585,-122.0225C585,-139.3734 585,-163 585,-163 585,-163 486.7834,-163 486.7834,-163"/>
<polygon fill="#000000" stroke="#000000" points="486.7834,-159.5001 476.7834,-163 486.7833,-166.5001 486.7834,-159.5001"/>
</g>
<!-- ReposListComponent -->
<g id="node3" class="node">
<title>ReposListComponent</title>
<polygon fill="#ffffb3" stroke="#000000" points="504.1066,-122 365.8934,-122 365.8934,-86 504.1066,-86 504.1066,-122"/>
<text text-anchor="middle" x="435" y="-99.8" font-family="Times,serif" font-size="14.00" fill="#000000">ReposListComponent</text>
</g>
<!-- ReposListComponent&#45;&gt;AppModule -->
<g id="edge3" class="edge">
<title>ReposListComponent&#45;&gt;AppModule</title>
<path fill="none" stroke="#000000" d="M435,-122.1061C435,-122.1061 435,-140.991 435,-140.991"/>
<polygon fill="#000000" stroke="#000000" points="431.5001,-140.9909 435,-150.991 438.5001,-140.991 431.5001,-140.9909"/>
</g>
<!-- RepoLanguagesComponent -->
<g id="node4" class="node">
<title>RepoLanguagesComponent</title>
<polygon fill="#ffffb3" stroke="#000000" points="347.5253,-122 176.4747,-122 176.4747,-86 347.5253,-86 347.5253,-122"/>
<text text-anchor="middle" x="262" y="-99.8" font-family="Times,serif" font-size="14.00" fill="#000000">RepoLanguagesComponent</text>
</g>
<!-- RepoLanguagesComponent&#45;&gt;AppModule -->
<g id="edge4" class="edge">
<title>RepoLanguagesComponent&#45;&gt;AppModule</title>
<path fill="none" stroke="#000000" d="M262,-122.0225C262,-139.3734 262,-163 262,-163 262,-163 383.1215,-163 383.1215,-163"/>
<polygon fill="#000000" stroke="#000000" points="383.1216,-166.5001 393.1215,-163 383.1215,-159.5001 383.1216,-166.5001"/>
</g>
<!-- AppComponent  -->
<g id="node6" class="node">
<title>AppComponent </title>
<polygon fill="#80b1d3" stroke="#000000" points="489.439,-252 380.561,-252 380.561,-216 489.439,-216 489.439,-252"/>
<text text-anchor="middle" x="435" y="-229.8" font-family="Times,serif" font-size="14.00" fill="#000000">AppComponent </text>
</g>
<!-- AppModule&#45;&gt;AppComponent  -->
<g id="edge5" class="edge">
<title>AppModule&#45;&gt;AppComponent </title>
<path fill="none" stroke="#000000" stroke-dasharray="1,5" d="M435,-187.1061C435,-187.1061 435,-205.991 435,-205.991"/>
<polygon fill="#000000" stroke="#000000" points="431.5001,-205.9909 435,-215.991 438.5001,-205.991 431.5001,-205.9909"/>
</g>
<!-- ReposService -->
<g id="node7" class="node">
<title>ReposService</title>
<ellipse fill="#fdb462" stroke="#000000" cx="88" cy="-104" rx="64.263" ry="18"/>
<text text-anchor="middle" x="88" y="-99.8" font-family="Times,serif" font-size="14.00" fill="#000000">ReposService</text>
</g>
<!-- ReposService&#45;&gt;AppModule -->
<g id="edge6" class="edge">
<title>ReposService&#45;&gt;AppModule</title>
<path fill="none" stroke="#000000" d="M88,-122.2843C88,-143.3211 88,-175 88,-175 88,-175 383.1437,-175 383.1437,-175"/>
<polygon fill="#000000" stroke="#000000" points="383.1437,-178.5001 393.1437,-175 383.1437,-171.5001 383.1437,-178.5001"/>
</g>
</g>
</svg>
